<svg width="500" height="327" viewBox="0 0 500 327" fill="none" xmlns="http://www.w3.org/2000/svg">
<path fill-rule="evenodd" clip-rule="evenodd" d="M469.94 324.786C480.526 297.852 486.34 268.519 486.34 237.828C486.34 106.479 379.86 0 248.512 0C117.163 0 10.6837 106.479 10.6837 237.828C10.6837 268.519 16.4972 297.852 27.083 324.786H150.397H199.619L215.016 324.786H276.007H325.229H469.94Z" fill="#FFB600"/>
<path d="M254.793 153.846H326.588C351.17 153.846 369.485 157.428 381.533 164.591C393.58 171.592 399.603 184.209 399.603 202.442C399.603 222.63 392.277 236.549 377.625 244.201C363.95 251.201 344.821 254.701 320.238 254.701H318.285V320.147H348.81V324.787H254.793V320.147H270.666V158.486H254.793V153.846ZM318.285 158.486V250.061H323.413C333.181 250.061 339.937 246.724 343.682 240.049C347.426 233.374 349.298 222.548 349.298 207.57V195.849C349.298 182.011 347.507 172.324 343.926 166.789C340.507 161.254 334.158 158.486 324.878 158.486H318.285Z" fill="white"/>
<path d="M191.636 234.188L226.313 157.754H201.648V153.846H249.756V157.754H233.639L196.764 239.317V320.147H211.661V324.787H134.249V320.147H149.145V243.956L107.631 157.754H96.1539V153.846H174.298V157.754H158.425L191.636 234.188Z" fill="white"/>
<path fill-rule="evenodd" clip-rule="evenodd" d="M1.86801e-07 324.786C8.36336e-08 323.606 0.956656 322.65 2.13675 322.65L497.863 322.649C499.043 322.649 500 323.606 500 324.786C500 325.966 499.043 326.923 497.863 326.923L2.13675 326.923C0.956657 326.923 2.89968e-07 325.966 1.86801e-07 324.786Z" fill="#2F2A47"/>
</svg>
